<svg width="424" height="430" viewBox="0 0 424 430" fill="none" xmlns="http://www.w3.org/2000/svg">
<path fill-rule="evenodd" clip-rule="evenodd" d="M9.02203 7.09964C19.4079 4.37284 321.08 3.08965 415.476 10.869L421.451 15.9216C422.694 23.2198 421.45 96.9236 418.002 109.274C315.867 111.721 115.648 111.239 14.3553 108.633L8.38042 103.58C4.93182 81.6455 6.81653 14.478 9.02203 7.09964Z" fill="url(#paint0_linear_567_8148)"/>
<path fill-rule="evenodd" clip-rule="evenodd" d="M2.96704 1.96714C13.7138 -0.839863 325.01 2.60873 415.396 10.7891C416.639 18.0873 415.396 91.7911 411.907 104.142C309.812 106.588 109.593 106.107 8.30034 103.5C4.29034 94.6383 0.280336 10.3881 2.96704 1.96714Z" fill="url(#paint1_radial_567_8148)"/>
<path fill-rule="evenodd" clip-rule="evenodd" d="M7.45847 111.079C106.104 111.881 319.276 108.593 416.879 109.916L423.015 114.969C423.336 147.049 421.571 180.051 419.526 213.975C395.025 216.863 30.1952 213.975 12.6715 211.409L6.53618 206.477C3.60888 182.657 5.97477 122.267 7.45847 111.199V111.079Z" fill="url(#paint2_linear_567_8148)"/>
<path fill-rule="evenodd" clip-rule="evenodd" d="M1.323 106.227C102.656 107.029 316.95 108.753 416.879 110.237C417.2 142.317 415.436 175.319 413.391 209.284C388.889 212.131 24.0597 209.284 6.53601 206.677C3.40821 188.111 -0.240898 118.457 1.323 106.427V106.227Z" fill="url(#paint3_radial_567_8148)"/>
<path fill-rule="evenodd" clip-rule="evenodd" d="M10.0646 215.901C32.1196 214.016 359.336 212.251 414.313 215.58L420.288 220.632C422.373 232.422 423.656 296.341 422.172 319.318C320.078 317.594 110.435 316.832 7.89919 319.318L1.88419 314.306C1.24259 291.489 8.50069 224.883 9.90419 215.901H10.0646Z" fill="url(#paint4_linear_567_8148)"/>
<path fill-rule="evenodd" clip-rule="evenodd" d="M4.08982 210.848C27.7087 208.843 382.113 211.89 414.313 215.58C416.398 227.409 417.681 291.288 416.198 314.306C314.103 312.582 104.42 311.82 1.88431 314.306C-0.0404879 307.489 2.28532 221.434 4.08982 210.848Z" fill="url(#paint5_radial_567_8148)"/>
<path fill-rule="evenodd" clip-rule="evenodd" d="M14.2753 322.767C38.0145 320.521 367.757 315.829 412.869 317.754L418.844 322.767C421.09 356.852 421.611 390.937 421.37 424.941C254.795 431.398 162.204 430.916 8.94196 424.941L2.9671 419.929C2.2453 393.663 10.7866 336.2 14.2753 322.767Z" fill="url(#paint6_linear_567_8148)"/>
<path fill-rule="evenodd" clip-rule="evenodd" d="M8.30069 317.554C33.6439 315.148 392.338 315.228 412.87 317.554C415.115 351.599 415.636 385.724 415.356 419.729C252.59 425.543 183.899 418.726 2.96739 419.729C1.48369 397.313 4.53129 332.07 8.30069 317.554Z" fill="url(#paint7_radial_567_8148)"/>
<path style="mix-blend-mode:multiply" fill-rule="evenodd" clip-rule="evenodd" d="M77.1922 69.3754C86.4553 67.0095 97.2422 64.2426 108.951 60.8742H109.513C120.42 57.7464 131.929 54.4582 143.437 52.0522C151.964 50.1954 160.627 49.0286 169.342 48.5635C177.628 48.1019 185.937 48.8585 194.003 50.809C203.599 53.3956 212.657 57.6732 220.75 63.4406C227.934 67.9833 233.787 74.3477 237.712 81.8865C238.005 82.586 238.234 83.3108 238.394 84.052C239.677 89.9467 236.83 97.0845 230.936 103.861L229.211 105.786H253.672C256.559 102.698 259.407 99.4905 262.254 96.2023C264.543 93.8855 266.258 91.0647 267.26 87.9659C268.263 84.8671 268.526 81.5765 268.028 78.3578C267.186 72.5834 262.534 66.7288 252.91 60.1925C228.415 43.3832 199.411 34.3677 169.703 34.328C147.447 34.328 126.756 39.4207 104.821 44.4332C66.0845 53.2953 39.1373 64.4832 3.92946 65.606C5.09236 83.9718 6.69638 100.052 8.34048 103.661C27.9093 104.182 58.1447 104.583 95.0367 104.944C85.0919 102.578 75.9491 100.573 68.2499 98.9692C56.7011 96.6033 48.5206 95.1597 45.7136 94.9592C43.5401 94.919 41.4514 94.1091 39.8189 92.6735C39.2892 92.1501 38.8705 91.5252 38.588 90.8361C38.3055 90.1471 38.165 89.4081 38.1749 88.6635C38.1754 87.232 38.6087 85.8342 39.418 84.6535C42.0134 81.2457 45.5564 78.6791 49.6034 77.2751C58.6384 74.0754 67.8498 71.3976 77.1922 69.2551V69.3754Z" fill="url(#paint8_radial_567_8148)"/>
<g style="mix-blend-mode:multiply" opacity="0.5">
<path d="M159.357 66.448C162.523 65.6602 165.739 65.0841 168.981 64.7237C171.907 64.3618 174.858 64.2411 177.803 64.3628C180.728 64.4655 183.639 64.8143 186.505 65.4055C188.438 65.7979 190.303 66.4735 192.039 67.4105C195.535 69.3001 198.725 71.7065 201.502 74.5483C202.82 75.9228 203.977 77.443 204.951 79.0795C205.942 80.6873 206.761 82.3941 207.397 84.1722C208.074 86.0633 208.413 88.0585 208.4 90.0669C208.336 92.0079 207.929 93.9222 207.197 95.7211C206.491 97.4136 205.407 98.9224 204.029 100.132C202.046 101.765 199.847 103.115 197.492 104.142C196.45 104.583 195.407 105.024 194.325 105.385H159.077L156.23 104.463C152.345 103.195 148.587 101.57 145.002 99.6108C143.105 98.6019 141.417 97.241 140.029 95.6008C138.655 93.9599 137.643 92.0466 137.062 89.9867C136.62 88.2364 136.62 86.4038 137.062 84.6534C137.588 82.7568 138.414 80.9563 139.508 79.3201C140.893 77.3202 142.508 75.4898 144.32 73.8665C146.026 72.2575 147.958 70.9066 150.054 69.8565C153.046 68.4624 156.16 67.3483 159.357 66.5283V66.448ZM152.901 77.8364C143.317 86.498 151.578 93.6358 162.124 97.8864C171.1 101.924 181.126 103.005 190.756 100.974C194.978 100.246 198.95 98.4669 202.305 95.8012C203.94 94.1446 204.861 91.9134 204.871 89.5858C204.755 86.8169 203.866 84.1359 202.305 81.8464C200.017 78.2296 196.83 75.268 193.056 73.2508C189.282 71.2337 185.049 70.2299 180.771 70.3377C172.51 70.0169 159.317 72.062 152.901 77.8364ZM3.88969 65.5258C39.0975 64.3228 66.0447 53.2151 104.781 44.353C126.716 39.3405 147.408 34.1675 169.663 34.2477C199.372 34.2874 228.375 43.3029 252.871 60.1122C262.495 66.6485 267.146 72.5031 267.988 78.2775C268.486 81.4962 268.223 84.7869 267.221 87.8857C266.218 90.9845 264.503 93.8053 262.214 96.122C259.367 99.4102 256.52 102.618 253.632 105.706H265.662L271.196 99.4102C278.094 91.3903 281.622 84.0118 280.5 76.3928C278.495 62.7187 249.863 47.9619 234.425 41.8266C181.974 21.0147 156.109 25.4658 103.819 40.1023C67.7289 50.1674 33.6439 58.5884 3.56888 58.6686V59.7514V60.834V61.5558C3.56888 62.1172 3.56888 62.6786 3.56888 63.2801V65.1648L3.88969 65.5258ZM2.56638 38.338C43.7892 37.8969 76.19 30.5185 107.428 25.3055C185.904 12.1928 211.688 10.9095 290.364 46.2376C302.401 51.474 313.454 58.7297 323.046 67.6911C324.383 68.854 325.469 70.2765 326.24 71.8723C327.01 73.4681 327.448 75.2039 327.527 76.9741C327.605 78.7443 327.323 80.5121 326.698 82.1701C326.072 83.828 325.116 85.3413 323.888 86.6183C316.859 93.4284 309.399 99.7774 301.552 105.626H312.58C319.639 100.591 326.338 95.0708 332.63 89.1045C334.249 87.374 335.516 85.3446 336.359 83.1297C337.182 80.9822 337.564 78.691 337.482 76.3928C337.369 74.204 336.81 72.0614 335.837 70.0972C334.821 67.9686 333.467 66.0185 331.827 64.3227C324.65 57.1047 310.494 49.2852 294.615 42.1073C273.651 32.845 252.129 24.9031 230.174 18.328C200.7 9.78674 186.946 11.3105 157.032 14.318C139.789 16.0824 123.428 18.8493 106.706 21.6162C75.6285 26.8292 43.3882 32.2026 2.44609 31.962V34.8894C2.44609 35.2904 2.44609 35.6512 2.44609 36.0522V38.2577L2.56638 38.338ZM2.16536 14.4784C39.9797 13.4358 76.8316 6.89951 113.924 1.44591L85.8541 1.20532C58.0931 4.9834 30.1368 7.1524 2.12528 7.7015V8.14261C2.12528 8.38321 2.12528 8.62382 2.12528 8.90452V9.18524C2.1042 9.45216 2.1042 9.72031 2.12528 9.98723V10.3883C2.12528 10.7091 2.12528 11.0298 2.12528 11.3506V14.3581L2.16536 14.4784ZM237.994 3.49105C269.873 14.9998 306.565 32.6839 333.632 43.0297C348.704 48.3333 363.436 54.5606 377.742 61.6761C412.629 80.1622 400.8 89.1045 368.96 102.899L363.907 105.064L386.805 104.744C391.416 102.618 395.907 100.493 400.118 98.2473C414.073 90.8689 415.556 83.1296 411.065 75.8715C401.602 60.5533 355.767 43.7915 338.484 37.0948C322.003 30.7991 305.722 24.1826 289.362 17.6062C278.855 13.5962 267.347 8.50355 255.557 3.93215L238.034 3.49105H237.994ZM301.392 5.21532C336.399 17.6864 371.807 29.516 407.496 40.0222C410.143 40.8242 412.91 41.5459 415.717 42.3078C415.717 40.2226 415.717 38.2978 415.717 36.1725L410.504 34.7289C380.509 25.8668 350.674 16.1225 321.121 5.89702L301.311 5.21532H301.392ZM411.506 10.5486L415.516 11.3105C415.516 11.3105 415.516 10.9897 415.516 10.8694L411.506 10.5486ZM49.5636 77.3151C45.5166 78.7192 41.9737 81.2858 39.3782 84.6936C38.569 85.8743 38.1356 87.2721 38.1351 88.7036C38.1252 89.4482 38.2658 90.1872 38.5483 90.8762C38.8308 91.5652 39.2494 92.1902 39.7792 92.7136C41.4116 94.1492 43.5004 94.9591 45.6739 94.9992C48.4809 95.2398 56.6613 96.6834 68.2101 99.0092C75.9093 100.613 85.0521 102.618 94.9969 104.984L119.297 105.185C116.33 104.222 113.282 103.3 110.155 102.498C98.1247 99.3702 87.2175 96.7235 78.3955 94.7586C72.4206 93.4353 45.3932 89.1446 61.6738 81.4855C69.8805 78.3201 78.2944 75.7208 86.8566 73.7061C106.907 68.1723 127.718 59.4707 147.809 54.9394C155.529 53.1321 163.391 51.9917 171.307 51.5308C178.684 51.1124 186.082 51.8291 193.242 53.6561C202.039 56.6546 210.248 61.1594 217.502 66.9694C230.495 76.7939 238.354 85.9767 226.284 100.934C224.913 102.626 223.44 104.233 221.873 105.746H229.171L230.896 103.821C236.79 97.0443 239.638 89.9066 238.354 84.0119C238.194 83.2707 237.966 82.5458 237.673 81.8464C233.747 74.3076 227.894 67.9431 220.71 63.4005C212.617 57.6331 203.559 53.3555 193.964 50.7689C185.897 48.8184 177.588 48.0618 169.302 48.5233C160.588 48.9885 151.925 50.1552 143.398 52.012C131.889 54.418 120.38 57.7062 109.473 60.834H108.912C97.2425 64.2024 86.4155 66.9693 77.1524 69.3353C67.8101 71.4778 58.5986 74.1556 49.5636 77.3552V77.3151Z" fill="#B7805C"/>
</g>
<path style="mix-blend-mode:multiply" opacity="0.5" fill-rule="evenodd" clip-rule="evenodd" d="M415.436 11.3103L411.426 10.5483C390.012 8.74384 357.972 7.17993 321.12 5.89673C350.674 16.1222 380.508 25.9467 410.503 34.7286L415.716 36.1722C415.716 24.1422 415.716 14.398 415.355 11.3103H415.436Z" fill="url(#paint9_radial_567_8148)"/>
<path style="mix-blend-mode:multiply" fill-rule="evenodd" clip-rule="evenodd" d="M314.264 196.492C281.983 171.149 249.021 146.407 215.257 122.949C207.999 117.896 199.738 112.803 191.197 107.63L88.9016 106.748L99.6484 109.315C155.788 122.588 191.517 130.848 237.592 167.219C250.662 177.921 264.69 187.398 279.497 195.53C287.758 199.981 295.537 204.753 303.276 209.685H331.346C325.933 205.675 320.238 201.144 314.143 196.372L314.264 196.492Z" fill="url(#paint10_radial_567_8148)"/>
<path style="mix-blend-mode:multiply" fill-rule="evenodd" clip-rule="evenodd" d="M226.845 202.066C167.818 171.429 136.139 135.74 64.32 133.695C39.057 132.973 24.8216 131.57 0.962058 120.262C0.962058 125.395 1.20264 131.41 1.44324 137.866C56.3802 157.515 97.6832 152.823 160.881 184.582C167.738 187.991 174.595 191.439 181.693 194.326C190.836 198.056 201.743 203.59 213.251 209.163L240.88 209.364L226.845 202.066Z" fill="url(#paint11_radial_567_8148)"/>
<g style="mix-blend-mode:multiply" opacity="0.5">
<path d="M414.754 185.184C399.47 175.572 386.048 163.278 375.135 148.893C367.998 139.55 365.351 132.412 366.394 126.598C366.959 123.347 368.271 120.272 370.226 117.614C372.182 114.956 374.727 112.787 377.662 111.279L380.709 109.475H364.188C358.95 112.997 355.262 118.393 353.882 124.553C351.436 138.347 374.293 161.725 387.206 172.673C395.771 179.987 404.843 186.687 414.353 192.723C414.353 190.277 414.634 187.87 414.754 185.464V185.184ZM413.511 207.078C389.211 196.372 366.795 179.81 334.634 150.257C324.713 141.389 316.397 130.876 310.053 119.179C308.334 115.974 307.862 112.245 308.73 108.713H298.304C298.156 110.046 298.156 111.39 298.304 112.723C298.646 115.125 299.377 117.454 300.469 119.62C305.041 128.843 316.188 140.873 329.181 152.863C346.382 168.46 364.543 182.964 383.556 196.292C390.505 201.176 397.81 205.533 405.411 209.324C409.14 209.324 411.867 209.043 413.431 208.883V206.998L413.511 207.078ZM373.732 209.966C346.103 188.552 315.346 158.678 291.968 139.55C279.451 129.794 267.495 119.338 256.159 108.232H245.252C257.928 120.844 271.317 132.719 285.352 143.801C299.226 155.149 312.78 166.738 326.414 178.287C338.043 188.071 350.915 199.66 364.308 210.046H373.932L373.732 209.966ZM340.609 209.966C332.79 203.75 324.569 197.053 315.306 189.916C284.189 165.535 252.429 141.796 219.908 119.099C214.655 115.45 208.841 111.761 202.746 108.031H191.237C199.738 113.204 207.999 118.297 215.297 123.35C249.061 146.808 282.023 171.47 314.304 196.893C320.399 201.665 326.093 206.076 331.507 210.206L340.609 209.966ZM65.1624 106.588C76.1097 108.793 87.2976 110.959 98.4454 113.605C153.944 126.678 188.35 137.665 233.903 173.515C247.214 184.464 261.51 194.156 276.61 202.467C281.101 204.873 285.432 207.359 289.682 209.845H303.316C295.617 204.913 287.798 200.141 279.537 195.69C264.71 187.51 250.669 177.979 237.592 167.219C191.518 130.848 155.748 122.588 99.6484 109.315L88.9017 106.748H65.2827L65.1624 106.588ZM1.00242 120.262C24.8619 131.57 39.0974 132.974 64.3604 133.695C136.18 135.741 167.858 171.429 226.886 202.066L240.921 209.364H257.362C248.139 204.352 238.956 199.459 229.933 194.768C179.969 168.823 122.305 130.086 65.1223 126.959C39.4583 125.555 25.9847 123.791 0.962342 111.52V112.563C0.942403 112.843 0.942403 113.124 0.962342 113.405V114.969V120.182L1.00242 120.262ZM1.84455 146.287C47.0774 164.893 87.3377 159.72 135.698 178.367C156.951 186.587 178.525 198.096 200.139 209.003H213.292C201.863 203.429 190.876 197.895 181.733 194.166C174.635 191.279 167.778 187.83 160.921 184.422C97.7236 152.663 56.4206 157.354 1.4836 137.705V146.327L1.84455 146.287ZM3.24801 171.149C17.0629 175.863 31.3377 179.102 45.8342 180.813C97.9642 186.788 118.375 196.853 147.488 208.883H167.738L163.247 207.319C125.312 194.447 102.816 184.302 47.2778 174.397C32.1185 171.608 17.1971 167.653 2.64654 162.567V163.089V164.051V164.973C2.64654 165.414 2.64654 165.856 2.64654 166.297V166.938V168.141V169.064V169.986V171.029L3.24801 171.149ZM4.69161 190.036C22.3757 195.169 40.7816 200.382 59.2677 205.033L70.7363 207.84L102.335 208.241C69.6937 200.221 36.7315 192.522 4.09014 183.099V184.903V185.865V187.63V189.314V189.916L4.69161 190.036ZM6.4961 205.875L9.14272 206.557C13.4334 206.798 22.1752 207.038 34.6062 207.279C24.902 204.672 15.2379 202.026 5.6139 199.259V199.499C5.59409 199.78 5.59409 200.061 5.6139 200.342V200.662V201.585V201.905V202.788V203.068C5.6337 203.349 5.6337 203.63 5.6139 203.91V204.111V204.953V205.675L6.4961 205.875ZM415.997 160.041C414.353 157.916 412.789 155.75 411.346 153.705C402.002 140.111 397.391 128.763 413.752 118.217C414.794 117.575 415.837 116.934 416.96 116.332C416.96 114.407 416.96 112.322 416.96 110.598C414.659 111.55 412.434 112.676 410.303 113.966C402.283 118.618 397.431 124.553 396.789 130.648C396.729 131.422 396.729 132.199 396.789 132.974C398.182 141.465 401.777 149.443 407.215 156.111C409.821 159.675 412.704 163.027 415.837 166.136L416.078 160.041H415.997Z" fill="#B7805C"/>
</g>
<path style="mix-blend-mode:multiply" fill-rule="evenodd" clip-rule="evenodd" d="M387.205 172.392C374.293 161.565 351.436 138.187 353.882 124.272C355.261 118.112 358.95 112.716 364.188 109.194L308.729 108.593C307.862 112.125 308.333 115.854 310.053 119.059C316.378 130.827 324.695 141.41 334.634 150.337C366.714 179.891 389.21 196.452 413.511 207.159C413.791 202.226 414.112 197.374 414.353 192.522C404.843 186.487 395.771 179.786 387.205 172.472V172.392Z" fill="url(#paint12_radial_567_8148)"/>
<g style="mix-blend-mode:multiply" opacity="0.5">
<path d="M151.899 312.742C173.272 309.293 196.931 304.722 216.901 308.251C223.046 309.399 229.124 310.885 235.106 312.702H252.269C240.952 308.722 229.222 306.032 217.302 304.682C193.242 302.396 164.57 307.449 140.31 310.857L125.072 312.942H151.899V312.742ZM60.591 304.722C40.8618 305.925 21.0926 306.205 1.28315 306.246C1.28315 306.526 1.28315 306.767 1.28315 307.007V308.692C1.28315 308.692 1.28315 309.093 1.28315 309.293V311.699C1.30592 311.805 1.30592 311.914 1.28315 312.02C1.28315 312.02 1.28315 312.341 1.28315 312.461V312.702C1.26334 312.848 1.26334 312.996 1.28315 313.143V313.383L60.591 304.722ZM400.519 313.022C395.787 311.539 390.895 309.895 385.882 308.09C370.569 302.178 354.743 297.695 338.604 294.697C294.174 286.677 261.011 272.722 213.131 271.359C182.575 270.476 148.45 276.291 117.854 280.582C80.2802 285.835 42.9069 291.088 1.1628 291.248V292.932V297.544C43.1876 297.544 80.6811 292.17 118.375 286.877C148.731 282.627 182.736 274.607 213.011 275.489C240.239 276.251 266.184 283.509 292.289 290.607C307.647 294.817 322.284 298.827 337.963 301.594C351.983 304.129 365.761 307.858 379.145 312.742H400.519V313.022ZM416.839 286.556C406.454 284.15 395.546 281.865 383.837 279.98C336.68 272.441 285.111 264.221 240.881 260.331C212.169 257.805 181.533 261.293 153.022 264.983C140.992 266.506 129.202 268.271 117.373 269.995C79.6786 275.449 42.907 280.782 1.28315 280.421V286.677C43.2679 287.038 80.1599 281.704 117.974 276.211C155.788 270.717 204.269 261.334 240.6 264.542C284.71 268.552 336.238 279.94 383.316 287.479C394.143 289.203 405.371 291.489 416.88 293.454C416.88 291.208 416.88 288.922 416.88 286.556H416.839ZM416.839 267.148C397.106 263.772 377.198 261.51 357.211 260.371C342.053 259.81 326.895 258.767 311.777 256.882C301.151 255.519 292.048 254.236 283.707 252.872C258.605 249.304 239.597 246.617 215.177 247.379C189.359 248.639 163.622 251.209 138.064 255.078C92.9116 261.093 47.1174 267.629 1.7242 268.592V275.489C47.5585 274.406 95.2775 266.065 138.786 259.208C163.984 254.789 189.428 251.91 214.976 250.587C262.735 249.103 302.394 265.023 356.81 265.785C375.536 266.025 398.434 270.115 416.759 272.201C416.759 270.436 416.759 268.712 416.759 266.948L416.839 267.148ZM416.438 248.983C407.616 248.983 398.754 249.263 389.892 249.424C357.215 249.933 324.55 247.828 292.209 243.128C269.362 239.67 246.331 237.568 223.237 236.832C187.387 236.391 148.651 241.885 112.922 245.935C76.3904 249.945 40.7415 253.955 1.92471 255.8V263.619C74.626 260.171 157.352 241.123 223.397 241.925C246.327 242.352 269.211 244.146 291.928 247.299C326.574 251.87 354.925 256.802 389.852 256.161C398.875 255.96 407.857 255.92 416.799 255.92C416.799 253.554 416.799 251.228 416.799 248.983H416.438ZM415.917 235.148C379.49 236.442 343.021 234.402 306.965 229.053C279.244 224.27 251.201 221.589 223.076 221.033C179.247 221.033 132.25 225.765 88.3402 230.416C59.9093 233.424 31.9596 236.391 2.52625 237.233V245.253C31.5031 245.494 60.4415 243.092 88.9818 238.076C132.49 231.138 179.648 225.244 223.357 225.244C268.67 225.244 313.462 235.549 358.534 239.439C377.806 241.018 397.147 241.593 416.479 241.163C416.479 239.038 416.479 237.153 416.198 235.028L415.917 235.148ZM414.915 219.108C407.777 219.108 400.639 219.108 393.541 219.108C361.473 218.955 329.452 216.61 297.702 212.091L261.051 211.569C267.988 212.532 275.367 213.775 283.467 215.299C326.963 223.308 371.188 226.668 415.396 225.324C415.396 222.918 415.075 220.792 414.915 219.028V219.108ZM99.3276 210.487C67.2476 213.815 35.6488 218.226 3.44853 217.865V218.507V218.787V219.429V220.071C41.9044 219.429 76.8716 217.264 114.004 213.895C127.117 212.692 140.47 211.489 154.104 210.366H155.508C135.899 210.366 116.972 210.086 99.3677 210.046L99.3276 210.487Z" fill="#B7805C"/>
</g>
<path style="mix-blend-mode:multiply" fill-rule="evenodd" clip-rule="evenodd" d="M383.837 279.86C395.546 281.745 406.453 283.87 416.839 286.437C416.839 281.865 416.839 277.093 416.839 272.281C398.514 270.196 375.616 266.106 356.89 265.865C302.474 265.103 262.815 249.184 215.056 250.667C189.388 251.963 163.823 254.828 138.505 259.249C94.9966 266.106 47.2776 274.447 1.44325 275.529V276.973V279.379V279.86C43.0671 280.221 79.8387 274.888 117.533 269.434C129.563 267.71 141.312 265.945 153.182 264.422C181.693 260.732 212.329 257.244 241.041 259.77C285.151 263.78 336.84 271.8 383.997 279.419L383.837 279.86Z" fill="url(#paint13_radial_567_8148)"/>
<path style="mix-blend-mode:multiply" fill-rule="evenodd" clip-rule="evenodd" d="M416.077 241.163C396.746 241.593 377.405 241.018 358.133 239.439C313.061 235.429 268.269 225.243 222.956 225.243C179.247 225.243 132.089 231.138 88.5807 238.075C60.0403 243.091 31.1019 245.494 2.12511 245.253V246.577V248.341V250.587V252.712V255.479C40.9419 253.795 76.5908 249.745 113.122 245.614C148.851 241.604 187.588 236.07 223.437 236.512C246.532 237.247 269.563 239.349 292.409 242.807C324.705 247.568 357.33 249.74 389.972 249.303C398.834 249.303 407.697 248.943 416.519 248.862C416.519 246.189 416.438 243.623 416.278 241.163H416.077Z" fill="url(#paint14_radial_567_8148)"/>
<g style="mix-blend-mode:multiply" opacity="0.5">
<path d="M227.648 420.811L228.249 420.25C230.836 417.823 233.626 415.623 236.59 413.674C238.604 412.362 240.79 411.337 243.086 410.626C245.316 409.952 247.595 409.456 249.903 409.142C252.37 408.761 254.866 408.6 257.362 408.661C259.687 408.726 261.998 409.035 264.259 409.583C266.478 410.141 268.639 410.906 270.715 411.869C272.911 412.851 274.919 414.208 276.65 415.879C278.1 417.415 279.291 419.175 280.179 421.092H275.086C274.573 420.18 273.954 419.332 273.241 418.566C270.747 416.297 267.684 414.744 264.379 414.075C259.798 412.994 255.024 413.039 250.464 414.205C245.904 415.371 241.694 417.624 238.194 420.771H227.648V420.811ZM178.565 420.37C183.712 413.672 189.299 407.322 195.287 401.363C220.888 375.794 253.628 358.571 289.201 351.96C303.076 349.313 312.178 350.356 317.873 354.606C321.054 356.953 323.645 360.009 325.441 363.53C327.236 367.052 328.187 370.944 328.218 374.897C329.559 390.437 329.639 406.06 328.459 421.613H337H338.925C340.326 404.466 340.326 387.232 338.925 370.085C338.003 357.293 334.634 347.869 327.136 342.255C313.662 332.19 276.249 344.14 257.682 352.16C212.891 371.528 190.635 390.295 169.863 420.33H178.766L178.565 420.37ZM153.663 420.13C193.081 367.278 218.946 344.381 288.72 315.87H273.201C257.161 323.168 243.006 330.386 233.622 335.559C200.901 353.564 190.355 366.757 167.297 395.147C160.56 403.448 154.224 411.749 148.089 420.09L153.663 420.13ZM373.17 316.511C372.293 334.216 370.351 351.852 367.356 369.323C363.988 389.654 363.346 405.654 360.82 421.453H367.035C369.922 405.774 371.807 389.012 375.055 369.644C377.862 352.561 381.471 330.787 382.594 316.952H373.211L373.17 316.511ZM119.939 419.889L127.037 410.425C145.322 386.365 164.57 354.727 189.031 337.524C201.427 329.2 214.506 321.942 228.129 315.83H213.252C203.645 320.966 194.542 326.994 186.064 333.834C162.645 353.243 141.954 383.077 123.227 407.618C120.18 411.628 117.092 415.638 114.004 419.648L119.939 419.889ZM413.11 321.444C411.787 324.972 410.503 328.501 409.341 332.03C400.118 359.418 397.992 390.977 391.456 420.491L398.032 420.29C399.877 412.751 401.481 405.132 403.125 397.553C406.574 381.794 410.183 367.117 414.594 352.2C414.246 341.935 413.752 331.682 413.11 321.444ZM95.0369 419.769C119.498 382.436 142.756 344.942 182.335 315.91H174.836C156.55 330.987 139.508 349.714 119.017 377.183C108.591 391.178 98.5656 405.493 88.4203 419.689L95.0369 419.769ZM144.841 316.03C120.139 341.293 97.6433 372.892 76.671 400.842C71.9392 407.097 67.2075 413.393 62.4356 419.648H72.5006L82.8063 406.015C104.741 376.902 126.636 341.855 152.42 316.03H144.841ZM125.633 316.03C114.485 329.023 103.939 342.496 93.8338 355.609C84.691 367.639 75.6284 379.669 66.646 391.699C59.6686 401.042 52.7313 410.345 45.6737 419.568H55.4982C61.2459 412.003 66.9535 404.397 72.6209 396.751C90.9466 372.21 111.879 342.175 133.773 316.03H125.633ZM106.345 316.03C94.315 330.506 83.1271 345.383 71.7788 360.14C56.7012 379.869 41.6236 399.759 26.145 419.368H35.0071C49.1223 400.481 62.7162 381.513 75.9091 363.428C87.6183 347.388 99.4077 331.348 111.999 315.95L106.345 316.03ZM87.6985 316.03C71.6585 335.358 56.2601 355.328 41.2627 374.175C29.2327 389.373 17.2027 404.41 4.89203 419.408H15.3181C42.4658 384.28 69.0921 348.03 95.9591 316.03H87.6985ZM60.3503 316.271C41.5835 338.165 23.338 360.621 5.77424 382.355L2.84696 385.924V386.205C2.84696 386.686 2.84696 387.127 2.84696 387.609V393.022V401.042L60.3503 316.271ZM2.60631 401.403C2.60631 401.884 2.60631 402.325 2.60631 402.806C2.60631 402.325 2.60631 401.884 2.60631 401.403ZM2.60631 402.806C6.09501 398.195 9.50351 393.543 12.9521 388.771C30.3956 364.711 49.0421 339.97 68.6109 316.19H60.5909L2.60631 402.806ZM29.3531 316.632C22.4559 324.852 15.7592 332.912 9.30306 340.692L5.01233 346.265V347.108V348.11V348.832V349.794V350.596V351.639V352.321V353.203V353.684V354.967V356.972L15.1175 344.942L39.1775 316.15H30.2352L29.3531 316.632ZM307.527 421.212C308.048 416.875 308.155 412.498 307.848 408.14C307.086 397.193 303.396 388.651 297.221 384.681C296.445 384.158 295.611 383.728 294.735 383.398C284.88 380.303 274.385 379.847 264.299 382.075C242.141 385.485 221.91 396.639 207.197 413.553C205.192 415.719 203.187 417.964 201.382 420.29H206.475C208.105 418.258 209.79 416.293 211.527 414.395C217.486 407.662 224.469 401.911 232.219 397.353C242.377 392.314 253.346 389.11 264.62 387.889C284.229 385.203 298.905 386.325 301.391 409.583C301.756 413.424 301.756 417.291 301.391 421.132L307.527 421.212Z" fill="#B7805C"/>
</g>
<path style="mix-blend-mode:multiply" fill-rule="evenodd" clip-rule="evenodd" d="M375.015 369.323C371.807 388.691 369.922 405.413 366.995 421.132C375.015 421.132 383.035 420.731 391.416 420.491C397.952 390.977 400.078 359.418 409.301 332.03C410.463 328.501 411.747 324.972 413.07 321.444L412.829 317.434C409.702 317.073 398.794 316.792 382.514 316.511C381.391 330.346 377.782 352.12 374.975 369.203L375.015 369.323ZM167.297 395.147C190.355 366.756 200.901 353.564 233.622 335.559C243.006 330.386 257.281 323.168 273.201 315.87H246.655H228.129C214.506 321.982 201.427 329.24 189.031 337.564C164.57 354.767 145.322 386.245 127.037 410.466L119.939 419.929H148.009C154.144 411.588 160.48 403.288 167.217 394.987L167.297 395.147Z" fill="url(#paint15_radial_567_8148)"/>
<path style="mix-blend-mode:multiply" fill-rule="evenodd" clip-rule="evenodd" d="M301.351 409.904C298.865 386.646 284.188 385.524 264.579 388.21C253.306 389.431 242.337 392.635 232.179 397.674C224.429 402.232 217.446 407.983 211.487 414.716C209.776 416.588 208.092 418.553 206.434 420.611L227.647 420.812L228.249 420.25C230.836 417.823 233.626 415.623 236.59 413.674C238.604 412.362 240.79 411.337 243.086 410.626C245.315 409.952 247.595 409.456 249.903 409.142C252.37 408.761 254.866 408.6 257.361 408.661C259.686 408.726 261.998 409.035 264.259 409.583C266.478 410.141 268.639 410.907 270.715 411.869C272.911 412.851 274.919 414.208 276.649 415.879C278.099 417.415 279.291 419.175 280.178 421.092H301.471C301.835 417.251 301.835 413.384 301.471 409.543L301.351 409.904Z" fill="url(#paint16_radial_567_8148)"/>
<path style="mix-blend-mode:screen" fill-rule="evenodd" clip-rule="evenodd" d="M7.49827 8.82391H8.58099C73.1019 7.05951 140.43 10.508 204.429 9.70605C262.173 8.98425 320.038 8.5432 378.022 8.3828C209.602 1.1247 9.90431 -1.72243 2.96701 2.08707C1.96451 5.41537 1.96449 20.6534 2.56599 38.1771V39.2999C2.56599 39.7811 2.56599 40.2623 2.56599 40.7435C3.16749 57.4251 4.29031 75.7909 5.65371 88.4224C5.65371 72.3824 5.6537 56.6632 6.2151 40.9039C22.0094 41.3603 37.8068 40.1099 53.3326 37.1746C69.7736 34.2874 86.0942 30.5982 102.455 27.2699C118.816 23.9416 133.452 21.1346 149.172 18.488C136.781 19.9717 123.107 22.1371 107.307 24.7837C77.0317 29.8363 45.7136 36.8137 6.29532 37.736C6.53592 28.0318 6.89678 18.2474 7.37798 8.30259L7.49827 8.82391Z" fill="url(#paint17_linear_567_8148)"/>
<path style="mix-blend-mode:screen" fill-rule="evenodd" clip-rule="evenodd" d="M11.3079 106.227H1.32294C0.119937 115.53 2.00464 158.718 4.33044 186.668C4.61114 163.73 4.89182 141.555 6.81662 118.498C7.01712 116.092 7.21763 113.605 7.45823 111.159V110.798C46.2349 110.798 84.9314 111.079 123.748 111.159C151.818 111.159 179.888 111.159 208.159 110.838H218.424C249.582 110.397 281.261 110.478 312.459 108.994C191.517 108.312 68.5305 106.788 11.388 106.347L11.3079 106.227Z" fill="url(#paint18_linear_567_8148)"/>
<path style="mix-blend-mode:screen" fill-rule="evenodd" clip-rule="evenodd" d="M1.00205 297.985C2.00455 288.201 3.16748 277.935 4.29028 267.59C5.21258 259.128 6.05462 250.667 6.73632 242.447C7.33782 234.908 7.81907 227.57 7.97947 220.713C8.04824 218.306 7.51044 215.92 6.41557 213.775C20.7313 213.775 35.0469 214.136 49.3626 214.096C92.9513 214.096 136.7 214.096 180.45 214.096H201.061H214.174C256.92 213.815 299.506 214.778 342.093 213.134C200.901 210.728 48.4403 209.124 11.5082 210.688C7.73883 210.688 5.17243 210.688 3.92933 210.928C2.52583 218.948 0.881748 270.797 1.00205 298.065V297.985Z" fill="url(#paint19_linear_567_8148)"/>
<path style="mix-blend-mode:screen" fill-rule="evenodd" clip-rule="evenodd" d="M5.65394 369.684C8.14015 349.072 10.8669 340.13 10.105 319.278C10.0851 319.092 10.0851 318.903 10.105 318.717L19.4484 319.078C76.5909 321.163 133.292 319.92 190.114 317.835C206.796 317.233 223.477 316.511 240.199 315.83C122.505 315.83 19.0072 316.511 8.34064 317.554C8.34064 318.075 8.05991 318.677 7.93961 319.318C5.01231 333.433 2.68651 376.381 2.60631 403.528C3.52861 392.18 4.37072 380.832 5.69402 369.523L5.65394 369.684Z" fill="url(#paint20_linear_567_8148)"/>
<path style="mix-blend-mode:multiply" fill-rule="evenodd" clip-rule="evenodd" d="M81.924 415.358C195.006 412.43 289.201 410.666 391.456 415.799C393.902 416.282 396.441 415.854 398.594 414.596C400.278 412.992 400.158 409.944 400.198 407.618C400.198 399.879 400.759 391.057 400.438 384.882L377.942 382.917L400.198 377.624C398.112 335.465 396.682 293.093 395.907 250.507L383.877 246.497L395.907 242.487C394.985 181.896 399.396 125.274 401.521 64.8437C395.905 50.906 388.835 37.5994 380.428 25.1447C379.766 23.9618 378.791 22.9843 377.609 22.3193C376.428 21.6544 375.087 21.3277 373.732 21.3753C328.539 25.3853 113.723 29.8765 32.2802 25.8264C30.1532 25.8264 28.1133 26.6713 26.6092 28.1754C25.1052 29.6794 24.2602 31.7193 24.2602 33.8464C23.8592 51.6508 25.784 63.1996 26.4256 80.1218L35.1674 85.6957L31.1574 90.8686L31.8792 94.8786L26.9068 98.3272C28.8049 161.391 28.6178 224.214 26.3454 286.797L32.9619 290.246L29.6336 296.301L39.017 301.073L25.6637 304.441C24.581 329.504 20.7314 354.807 20.571 379.188C34.0446 393.383 61.0319 408.461 82.1646 415.278L81.924 415.358Z" fill="url(#paint21_radial_567_8148)"/>
<path fill-rule="evenodd" clip-rule="evenodd" d="M82.2851 404.33C99.087 408.34 343.737 406.375 408.459 401.884C407.951 393.623 407.469 385.349 407.015 377.062L383.837 375.137L406.654 370.125C404.515 330.025 403.058 289.617 402.283 248.902L389.892 244.892L401.922 240.882C400.96 183.098 401.481 125.114 403.647 67.45C393.809 53.7358 383.998 39.9948 374.213 26.2272C370.203 24.5029 82.9267 27.7911 16.6414 30.2372C17.7642 48.9505 18.6865 67.5702 19.4083 86.0964L28.3908 91.3897L24.3808 96.322L25.1025 100.131L20.0499 103.42C21.9747 163.57 21.7743 223.492 19.4485 283.188L26.2253 286.476L22.8569 292.291L32.4008 296.822L18.7667 300.07C17.6439 324.798 16.1469 349.513 14.2755 374.215L82.1248 404.049L82.2851 404.33Z" fill="url(#paint22_linear_567_8148)"/>
<path style="mix-blend-mode:multiply" fill-rule="evenodd" clip-rule="evenodd" d="M82.2448 404.29L14.4356 374.496C16.5208 371.248 37.6535 354.446 40.5407 354.205C43.4279 353.964 75.2273 398.315 82.2448 404.29Z" fill="url(#paint23_radial_567_8148)"/>
<path style="mix-blend-mode:multiply" fill-rule="evenodd" clip-rule="evenodd" d="M403.847 67.6507C397.07 64.4427 368.158 59.6306 366.835 56.7835C365.752 54.4577 372.85 34.6083 374.414 26.4279C384.225 40.1955 394.036 53.9365 403.847 67.6507Z" fill="url(#paint24_radial_567_8148)"/>
<path fill-rule="evenodd" clip-rule="evenodd" d="M36.5307 361.223C50.9584 376.442 66.234 390.834 82.2848 404.33C77.2723 404.33 14.4356 379.428 14.4356 374.496C21.3221 369.32 28.7267 364.871 36.5307 361.223Z" fill="url(#paint25_linear_567_8148)"/>
<path fill-rule="evenodd" clip-rule="evenodd" d="M403.847 67.6507C392.258 62.4377 380.589 57.3449 369.441 51.2497C371.525 43.067 373.185 34.782 374.413 26.4279C377.261 26.4279 403.847 64.6031 403.847 67.6507Z" fill="url(#paint26_linear_567_8148)"/>
<path style="mix-blend-mode:screen" fill-rule="evenodd" clip-rule="evenodd" d="M68.1297 398.115C64.1197 384 33.8441 366.716 23.5384 368.24C27.7143 365.625 32.0541 363.281 36.5309 361.223C50.9383 376.394 66.1727 390.759 82.1646 404.25C77.4458 403.206 72.8295 401.743 68.3703 399.879C68.2888 399.257 68.1682 398.641 68.0094 398.034L68.1297 398.115Z" fill="url(#paint27_radial_567_8148)"/>
<path style="mix-blend-mode:screen" fill-rule="evenodd" clip-rule="evenodd" d="M373.932 48.4828C377.341 56.5028 392.218 61.9163 401.28 64.1619L402.283 64.4025C402.963 65.3907 403.465 66.4898 403.767 67.6506L402.844 67.2496C391.536 62.197 380.228 57.1845 369.361 51.2096C371.445 43.0269 373.105 34.7419 374.333 26.3877C374.635 26.4616 374.911 26.6138 375.135 26.8288C375.119 26.9754 375.119 27.1233 375.135 27.2699C373.251 32.8839 371.767 43.0693 374.093 48.4427L373.932 48.4828Z" fill="url(#paint28_radial_567_8148)"/>
<path style="mix-blend-mode:screen" opacity="0.5" fill-rule="evenodd" clip-rule="evenodd" d="M90.3453 396.711C82.3253 393.062 79.3579 386.726 75.0271 376.3C62.6763 346.586 46.516 351.92 33.6038 343.819C24.9823 338.366 22.2555 322.045 38.2153 300.03C52.9721 279.74 26.1853 257.284 27.1477 214.818C27.7492 187.63 42.3054 144.643 44.7114 131.971C46.9169 120.262 49.6838 114.046 38.5761 97.3647C34.2854 90.9086 39.0975 87.9412 28.6314 71.5804C23.0976 63.0391 24.8619 56.984 30.2353 52.573C47.0773 38.8588 77.8742 35.2498 108.19 38.8588C193.082 49.0041 198.254 55.0993 270.274 41.1846C289.241 37.4954 296.058 38.538 308.329 37.1746C317.793 36.0919 327.697 34.528 335.918 36.9741C352.88 42.0668 344.86 58.9088 359.496 69.0541C380.549 83.9312 403.607 63.1996 393.02 106.427C387.767 128.162 381.632 153.425 391.496 180.332C394.343 188.071 394.303 207.68 391.095 214.858C378.263 243.489 366.394 238.918 383.436 255.399C397.311 268.752 377.742 279.699 387.767 294.617C397.792 309.534 392.86 323.128 382.113 352.681C380.629 356.691 387.887 361.624 374.414 369.483C364.99 374.977 398.474 390.736 323.005 390.736C301.592 390.736 294.936 398.756 273.442 397.954C257.79 397.605 242.13 398.06 226.525 399.318C199.457 401.082 172.109 394.706 168.22 394.827C137.142 395.869 115.608 408.3 90.3453 396.591V396.711Z" fill="url(#paint29_radial_567_8148)"/>
<path style="mix-blend-mode:screen" opacity="0.5" fill-rule="evenodd" clip-rule="evenodd" d="M57.1423 340.09C46.7965 330.787 41.8241 323.649 49.1223 297.624C59.7087 259.008 38.9369 249.224 36.6512 225.164C33.7239 194.327 36.1299 209.404 47.2777 187.63C54.1348 174.197 35.769 169.986 57.1022 144.723C72.9417 125.916 69.1322 110.598 54.6561 93.3951C42.987 79.4804 41.6236 60.3527 54.1348 51.1297C73.7437 36.6937 96.1195 52.9744 111.478 53.9368C118.407 53.8303 125.237 52.273 131.528 49.3654C142.595 45.0747 170.826 57.0645 192.279 60.9141C216.821 65.3251 238.074 64.9241 269.953 48.2024C297.782 33.606 336.439 53.4956 344.298 68.2524C346.424 72.2624 361.1 68.8138 363.707 91.5104C364.83 101.375 389.371 107.55 374.855 134.337C372.208 139.229 370.363 167.46 375.095 175.921C380.589 185.585 380.549 207.279 374.855 215.66C358.815 239.439 381.752 258.928 369.922 276.211C358.093 293.494 368.198 307.649 368.198 321.003C368.198 349.073 358.253 332.03 363.827 359.419C368.679 383.479 348.95 386.606 328.178 381.794C314.344 378.586 294.534 390.576 273.321 391.659C247.697 392.942 241.963 380.311 220.149 384.24C186.906 390.255 174.314 370.927 151.217 386.045C133.493 397.594 116.37 394.707 108.591 386.887C98.7259 376.862 110.275 389.413 94.9566 368.361C80.1597 348.03 62.3954 345.023 57.1423 340.291V340.09Z" fill="url(#paint30_radial_567_8148)"/>
<defs>
<linearGradient id="paint0_linear_567_8148" x1="120131" y1="20245.8" x2="120131" y2="17451.5" gradientUnits="userSpaceOnUse">
<stop stop-color="#692705"/>
<stop offset="1" stop-color="#823B00"/>
</linearGradient>
<radialGradient id="paint1_radial_567_8148" cx="0" cy="0" r="1" gradientUnits="userSpaceOnUse" gradientTransform="translate(102092 15931.1) scale(39126.2 9903.7)">
<stop stop-color="#F59547"/>
<stop offset="1" stop-color="#A14C1F"/>
</radialGradient>
<linearGradient id="paint2_linear_567_8148" x1="120840" y1="23038.7" x2="120840" y2="20258.8" gradientUnits="userSpaceOnUse">
<stop stop-color="#692705"/>
<stop offset="1" stop-color="#823B00"/>
</linearGradient>
<radialGradient id="paint3_radial_567_8148" cx="0" cy="0" r="1" gradientUnits="userSpaceOnUse" gradientTransform="translate(102117 17891) scale(42403.8 10626.5)">
<stop stop-color="#F59547"/>
<stop offset="1" stop-color="#A14C1F"/>
</radialGradient>
<linearGradient id="paint4_linear_567_8148" x1="121536" y1="25891" x2="121536" y2="23109.3" gradientUnits="userSpaceOnUse">
<stop stop-color="#692705"/>
<stop offset="1" stop-color="#823B00"/>
</linearGradient>
<radialGradient id="paint5_radial_567_8148" cx="0" cy="0" r="1" gradientUnits="userSpaceOnUse" gradientTransform="translate(102154 21616.2) scale(39003.1 9767.2)">
<stop stop-color="#F59547"/>
<stop offset="1" stop-color="#A14C1F"/>
</radialGradient>
<linearGradient id="paint6_linear_567_8148" x1="120807" y1="30705.6" x2="120807" y2="27561.1" gradientUnits="userSpaceOnUse">
<stop stop-color="#692705"/>
<stop offset="1" stop-color="#823B00"/>
</linearGradient>
<radialGradient id="paint7_radial_567_8148" cx="0" cy="0" r="1" gradientUnits="userSpaceOnUse" gradientTransform="translate(103580 24645) scale(39385 10143.4)">
<stop stop-color="#F59547"/>
<stop offset="1" stop-color="#A14C1F"/>
</radialGradient>
<radialGradient id="paint8_radial_567_8148" cx="0" cy="0" r="1" gradientUnits="userSpaceOnUse" gradientTransform="translate(68508.6 10900.3) scale(18805.4 5083.53)">
<stop stop-color="#CFA04D"/>
<stop offset="1" stop-color="white"/>
</radialGradient>
<radialGradient id="paint9_radial_567_8148" cx="0" cy="0" r="1" gradientUnits="userSpaceOnUse" gradientTransform="translate(32034.4 4551.46) scale(3653.3 1169.24)">
<stop stop-color="#CFA04D"/>
<stop offset="1" stop-color="white"/>
</radialGradient>
<radialGradient id="paint10_radial_567_8148" cx="0" cy="0" r="1" gradientUnits="userSpaceOnUse" gradientTransform="translate(70962.7 18556.1) scale(17487.5 7424.82)">
<stop stop-color="#CFA04D"/>
<stop offset="1" stop-color="white"/>
</radialGradient>
<radialGradient id="paint11_radial_567_8148" cx="0" cy="0" r="1" gradientUnits="userSpaceOnUse" gradientTransform="translate(61446.4 16322.6) scale(16504 6129.34)">
<stop stop-color="#CFA04D"/>
<stop offset="1" stop-color="white"/>
</radialGradient>
<radialGradient id="paint12_radial_567_8148" cx="0" cy="0" r="1" gradientUnits="userSpaceOnUse" gradientTransform="translate(35670 18319.6) scale(5090.3 4731.16)">
<stop stop-color="#CFA04D"/>
<stop offset="1" stop-color="white"/>
</radialGradient>
<radialGradient id="paint13_radial_567_8148" cx="0" cy="0" r="1" gradientUnits="userSpaceOnUse" gradientTransform="translate(119590 8516.78) scale(15278.3 1319.18)">
<stop stop-color="#CFA04D"/>
<stop offset="1" stop-color="white"/>
</radialGradient>
<radialGradient id="paint14_radial_567_8148" cx="0" cy="0" r="1" gradientUnits="userSpaceOnUse" gradientTransform="translate(111689 6108.15) scale(40817.8 2978.19)">
<stop stop-color="#CFA04D"/>
<stop offset="1" stop-color="white"/>
</radialGradient>
<radialGradient id="paint15_radial_567_8148" cx="0" cy="0" r="1" gradientUnits="userSpaceOnUse" gradientTransform="translate(85620.4 24415.7) scale(23154.4 8314.69)">
<stop stop-color="#CFA04D"/>
<stop offset="1" stop-color="white"/>
</radialGradient>
<radialGradient id="paint16_radial_567_8148" cx="0" cy="0" r="1" gradientUnits="userSpaceOnUse" gradientTransform="translate(26263.2 9981.54) scale(6030.26 2145.38)">
<stop stop-color="#CFA04D"/>
<stop offset="1" stop-color="white"/>
</radialGradient>
<linearGradient id="paint17_linear_567_8148" x1="88815.7" y1="15373.5" x2="124046" y2="15373.5" gradientUnits="userSpaceOnUse">
<stop stop-color="#A48A7B"/>
<stop offset="1" stop-color="#945534"/>
</linearGradient>
<linearGradient id="paint18_linear_567_8148" x1="73514.2" y1="16193.5" x2="97706.1" y2="16193.5" gradientUnits="userSpaceOnUse">
<stop stop-color="#A48A7B"/>
<stop offset="1" stop-color="#945534"/>
</linearGradient>
<linearGradient id="paint19_linear_567_8148" x1="80513.5" y1="20172.5" x2="109527" y2="20172.5" gradientUnits="userSpaceOnUse">
<stop stop-color="#A48A7B"/>
<stop offset="1" stop-color="#945534"/>
</linearGradient>
<linearGradient id="paint20_linear_567_8148" x1="56167.1" y1="22522.9" x2="70244.5" y2="22522.9" gradientUnits="userSpaceOnUse">
<stop stop-color="#A48A7B"/>
<stop offset="1" stop-color="#945534"/>
</linearGradient>
<radialGradient id="paint21_radial_567_8148" cx="0" cy="0" r="1" gradientUnits="userSpaceOnUse" gradientTransform="translate(110416 97165.4) scale(34175 35401.5)">
<stop stop-color="#A48A7B"/>
<stop offset="1" stop-color="white"/>
</radialGradient>
<linearGradient id="paint22_linear_567_8148" x1="113728" y1="100884" x2="113728" y2="64746.6" gradientUnits="userSpaceOnUse">
<stop stop-color="#EDD6B9"/>
<stop offset="1" stop-color="#D4B492"/>
</linearGradient>
<radialGradient id="paint23_radial_567_8148" cx="0" cy="0" r="1" gradientUnits="userSpaceOnUse" gradientTransform="translate(16674.5 13645.5) scale(1046.29 772.824)">
<stop stop-color="#A48A7B"/>
<stop offset="1" stop-color="white"/>
</radialGradient>
<radialGradient id="paint24_radial_567_8148" cx="0" cy="0" r="1" gradientUnits="userSpaceOnUse" gradientTransform="translate(12809.6 7222.28) scale(327.434 363.585)">
<stop stop-color="#A48A7B"/>
<stop offset="1" stop-color="white"/>
</radialGradient>
<linearGradient id="paint25_linear_567_8148" x1="16811.8" y1="11620" x2="16881.4" y2="11361.2" gradientUnits="userSpaceOnUse">
<stop stop-color="#BF9F7E"/>
<stop offset="1" stop-color="#EDD6B9"/>
</linearGradient>
<linearGradient id="paint26_linear_567_8148" x1="11846.5" y1="7217.74" x2="11693.6" y2="7345.36" gradientUnits="userSpaceOnUse">
<stop stop-color="#BF9F7E"/>
<stop offset="1" stop-color="#EDD6B9"/>
</linearGradient>
<radialGradient id="paint27_radial_567_8148" cx="0" cy="0" r="1" gradientUnits="userSpaceOnUse" gradientTransform="translate(14276.7 12079.3) scale(1529.56 1122.58)">
<stop/>
<stop offset="1" stop-color="#A3805F"/>
</radialGradient>
<radialGradient id="paint28_radial_567_8148" cx="0" cy="0" r="1" gradientUnits="userSpaceOnUse" gradientTransform="translate(12003.7 6913.17) scale(588.34 705.596)">
<stop/>
<stop offset="1" stop-color="#A3805F"/>
</radialGradient>
<radialGradient id="paint29_radial_567_8148" cx="0" cy="0" r="1" gradientUnits="userSpaceOnUse" gradientTransform="translate(106795 79817.6) scale(34357.5 33937.7)">
<stop stop-color="#CA9E67"/>
<stop offset="1"/>
</radialGradient>
<radialGradient id="paint30_radial_567_8148" cx="0" cy="0" r="1" gradientUnits="userSpaceOnUse" gradientTransform="translate(98886.3 76470.3) scale(26189.9 26701.8)">
<stop stop-color="#CA9E67"/>
<stop offset="1"/>
</radialGradient>
</defs>
</svg>
