<svg width="396" height="339" viewBox="0 0 396 339" fill="none" xmlns="http://www.w3.org/2000/svg">
<path opacity="0.5" fill-rule="evenodd" clip-rule="evenodd" d="M107.325 46.0599C141.341 28.9267 171.524 -3.6877 209.307 1.07403C246.946 5.81771 266.677 46.3364 296.408 69.89C328.987 95.6996 378.372 106.159 391.661 145.539C405.141 185.487 384.553 229.545 362.391 265.425C342.202 298.111 310.973 323.692 274.383 335.412C241.928 345.808 209.086 328.61 175.163 325.398C140.731 322.138 100.747 338.793 74.3382 316.471C47.9034 294.128 59.8176 251.25 48.6691 218.483C35.2096 178.924 -10.986 144.821 2.47433 105.254C15.7227 66.3098 70.5811 64.5677 107.325 46.0599Z" fill="#378E04"/>
</svg>
