<svg width="31" height="24" viewBox="0 0 31 24" fill="none" xmlns="http://www.w3.org/2000/svg">
<g filter="url(#filter0_d_727_9175)">
<path d="M3.5 20H20C20.825 20 21.5 19.325 21.5 18.5C21.5 17.675 20.825 17 20 17H3.5C2.675 17 2 17.675 2 18.5C2 19.325 2.675 20 3.5 20ZM3.5 12.5H15.5C16.325 12.5 17 11.825 17 11C17 10.175 16.325 9.5 15.5 9.5H3.5C2.675 9.5 2 10.175 2 11C2 11.825 2.675 12.5 3.5 12.5ZM2 3.5C2 4.325 2.675 5 3.5 5H20C20.825 5 21.5 4.325 21.5 3.5C21.5 2.675 20.825 2 20 2H3.5C2.675 2 2 2.675 2 3.5ZM27.95 15.32L23.63 11L27.95 6.68C28.0889 6.54113 28.199 6.37626 28.2742 6.19481C28.3493 6.01337 28.388 5.8189 28.388 5.6225C28.388 5.4261 28.3493 5.23163 28.2742 5.05019C28.199 4.86874 28.0889 4.70387 27.95 4.565C27.8111 4.42613 27.6463 4.31597 27.4648 4.24081C27.2834 4.16565 27.0889 4.12697 26.8925 4.12697C26.6961 4.12697 26.5016 4.16565 26.3202 4.24081C26.1387 4.31597 25.9739 4.42613 25.835 4.565L20.45 9.95C20.3109 10.0888 20.2006 10.2536 20.1254 10.4351C20.0501 10.6165 20.0113 10.811 20.0113 11.0075C20.0113 11.204 20.0501 11.3985 20.1254 11.5799C20.2006 11.7614 20.3109 11.9262 20.45 12.065L25.835 17.45C26.42 18.035 27.365 18.035 27.95 17.45C28.52 16.865 28.535 15.905 27.95 15.32V15.32Z" fill="white"/>
<path d="M24.9028 11L28.5864 7.3164C28.8088 7.09395 28.9853 6.82987 29.1057 6.53923C29.2261 6.24859 29.288 5.93708 29.288 5.6225C29.288 5.30792 29.2261 4.99641 29.1057 4.70577C28.9853 4.41513 28.8088 4.15105 28.5864 3.9286C28.364 3.70616 28.0999 3.52971 27.8092 3.40932C27.5186 3.28893 27.2071 3.22697 26.8925 3.22697C26.5779 3.22697 26.2664 3.28893 25.9758 3.40932C25.6851 3.5297 25.4211 3.70616 25.1986 3.9286L19.8143 9.31295C19.5914 9.53532 19.4147 9.79945 19.294 10.0902C19.1734 10.381 19.1113 10.6927 19.1113 11.0075C19.1113 11.3223 19.1734 11.634 19.294 11.9248C19.4147 12.2156 19.5914 12.4797 19.8143 12.702L25.1986 18.0864C26.1351 19.0229 27.6499 19.0229 28.5864 18.0864L28.5864 18.0864L28.5946 18.0781C29.4949 17.1541 29.5331 15.6303 28.5864 14.6836L24.9028 11ZM3.5 20.9H20C21.3221 20.9 22.4 19.8221 22.4 18.5C22.4 17.1779 21.3221 16.1 20 16.1H3.5C2.17794 16.1 1.1 17.1779 1.1 18.5C1.1 19.8221 2.17794 20.9 3.5 20.9ZM3.5 13.4H15.5C16.8221 13.4 17.9 12.3221 17.9 11C17.9 9.67794 16.8221 8.6 15.5 8.6H3.5C2.17794 8.6 1.1 9.67794 1.1 11C1.1 12.3221 2.17794 13.4 3.5 13.4ZM1.1 3.5C1.1 4.82206 2.17794 5.9 3.5 5.9H20C21.3221 5.9 22.4 4.82206 22.4 3.5C22.4 2.17794 21.3221 1.1 20 1.1H3.5C2.17794 1.1 1.1 2.17794 1.1 3.5Z" stroke="#542C11" stroke-width="1.8"/>
</g>
<defs>
<filter id="filter0_d_727_9175" x="0.200195" y="0.200195" width="29.9878" height="23.0996" filterUnits="userSpaceOnUse" color-interpolation-filters="sRGB">
<feFlood flood-opacity="0" result="BackgroundImageFix"/>
<feColorMatrix in="SourceAlpha" type="matrix" values="0 0 0 0 0 0 0 0 0 0 0 0 0 0 0 0 0 0 127 0" result="hardAlpha"/>
<feOffset dy="1.5"/>
<feComposite in2="hardAlpha" operator="out"/>
<feColorMatrix type="matrix" values="0 0 0 0 1 0 0 0 0 0.952941 0 0 0 0 0.823529 0 0 0 1 0"/>
<feBlend mode="normal" in2="BackgroundImageFix" result="effect1_dropShadow_727_9175"/>
<feBlend mode="normal" in="SourceGraphic" in2="effect1_dropShadow_727_9175" result="shape"/>
</filter>
</defs>
</svg>
