<svg width="55" height="64" viewBox="0 0 55 64" fill="none" xmlns="http://www.w3.org/2000/svg">
<path d="M45.11 3.33008H9.75C7.16587 3.33008 4.68745 4.35593 2.85925 6.18225C1.03106 8.00857 0.00265039 10.4859 0 13.0701V53.4801C0.00265039 56.0642 1.03106 58.5416 2.85925 60.3679C4.68745 62.1942 7.16587 63.2201 9.75 63.2201H45.11C50.3 63.2201 54.86 59.0001 54.86 54.2201V13.7601C54.86 7.82007 50.67 3.33008 45.11 3.33008Z" fill="#662C05"/>
<path d="M9.87012 58.1202C7.74839 58.1202 5.71355 57.2774 4.21326 55.7771C2.71297 54.2768 1.87012 52.242 1.87012 50.1202V9.74023C1.87012 7.6185 2.71297 5.58368 4.21326 4.08339C5.71355 2.5831 7.74839 1.74023 9.87012 1.74023H45.2401C49.8001 1.74023 53.2401 5.47024 53.2401 10.4202V50.8402C53.2401 54.7202 49.5101 58.1302 45.2401 58.1302L9.87012 58.1202Z" fill="#844326"/>
<path d="M45.2399 3.5C48.6899 3.5 51.4799 6.28999 51.4799 10.43V50.85C51.4799 53.6 48.6899 56.39 45.2399 56.39H9.86987C8.21492 56.39 6.62775 55.7326 5.45752 54.5623C4.28729 53.3921 3.62988 51.8049 3.62988 50.15V9.73999C3.62988 8.08504 4.28729 6.49788 5.45752 5.32765C6.62775 4.15742 8.21492 3.5 9.86987 3.5H45.2399ZM45.2399 0H9.86987C7.28748 0.00264726 4.8116 1.02967 2.98557 2.8557C1.15953 4.68173 0.13253 7.15759 0.129883 9.73999V50.12C0.13253 52.7024 1.15953 55.1783 2.98557 57.0043C4.8116 58.8303 7.28748 59.8573 9.86987 59.86H45.2399C50.4299 59.86 54.9799 55.63 54.9799 50.86V10.43C54.9799 4.47999 50.7899 0 45.2399 0Z" fill="#542C11"/>
<path d="M51.4799 46.12C51.4799 48.87 48.6899 51.66 45.2399 51.66H9.86987C8.21492 51.66 6.62775 51.0026 5.45752 49.8323C4.28729 48.6621 3.62988 47.0749 3.62988 45.42V9.73999C3.62988 8.08504 4.28729 6.49788 5.45752 5.32765C6.62775 4.15742 8.21492 3.5 9.86987 3.5H45.2399C48.6899 3.5 51.4799 6.28999 51.4799 10.43V46.12Z" fill="#DB9E71"/>
<path d="M49.8602 43.9101C49.8615 44.6748 49.7119 45.4322 49.4199 46.1389C49.1278 46.8456 48.6992 47.4877 48.1585 48.0284C47.6178 48.5691 46.9757 48.9977 46.269 49.2898C45.5623 49.5818 44.8049 49.7314 44.0402 49.7301H11.0402C9.49747 49.7275 8.01865 49.1134 6.92776 48.0226C5.83688 46.9317 5.22286 45.4529 5.22021 43.9101V39.6601L10.7502 37.1801L5.22021 34.6701V18.3401L13.0502 15.7801L5.22021 12.6801V10.9401C5.26544 9.41088 5.89313 7.95666 6.97495 6.87485C8.05676 5.79303 9.51098 5.16535 11.0402 5.12012H44.0402C49.1202 5.12012 49.6302 9.39012 49.7002 11.5801V11.8301L43.3402 14.1701L49.8702 16.1701V36.2401L43.3402 39.4101L49.8802 41.3001V43.9101H49.8602Z" fill="#FFC282"/>
<path d="M44.04 5.12012H11.04C9.55985 5.1625 8.14767 5.75072 7.0751 6.77159C6.00254 7.79246 5.34536 9.17388 5.22998 10.6501C5.22998 10.6501 7.00996 6.80011 10.9 6.80011H44.07C46.75 6.80011 48.61 7.98011 49.49 9.80011C49.13 7.61011 47.92 5.12012 44.04 5.12012Z" fill="#FFF3D2"/>
<path d="M52.06 12.5596L48.21 14.0996L52.06 15.2996V12.5596Z" fill="#542C11"/>
<path d="M51.5302 37.3096L47.1602 39.1596L51.5302 40.2996V37.3096Z" fill="#542C11"/>
<path d="M3.2998 14.3096L9.4298 15.7296L3.2998 17.0496V14.3096Z" fill="#542C11"/>
<path d="M3.06006 35.6396L7.43006 37.1297L3.06006 38.6297V35.6396Z" fill="#542C11"/>
<path d="M43.3301 39.4199L49.8601 41.2999V43.0799L43.3301 41.1399V39.4199Z" fill="#FFF3D2"/>
<path d="M43.3301 14.1699L49.8601 16.0699V17.6299L43.3301 15.6799V14.1699Z" fill="#FFF3D2"/>
<path d="M10.76 37.1299L5.25 39.6499V41.5899L10.76 39.0099V37.1299Z" fill="#FFF3D2"/>
<path d="M12.91 15.7998L5.25 18.3498V20.2098L12.91 17.6098V15.7998Z" fill="#FFF3D2"/>
</svg>
